<svg xmlns="http://www.w3.org/2000/svg" width="128" height="128" viewBox="0 0 128 128">
  <g fill="none" fill-rule="evenodd">
    <rect width="128" height="128" fill="#055FF9"/>
    <g transform="translate(30 19)">
      <text fill="#FFF" font-family="Geometria-Bold, Geometria" font-size="10" font-weight="bold">
        <tspan x="3.11" y="67">Лента Пульс</tspan> <tspan x="6.89" y="79">для Mail.ru</tspan>
      </text>
      <g transform="translate(13)">
        <rect width="43" height="43"/>
        <path fill="#ED7064" fill-rule="nonzero" d="M27.3229167,36.7291667 C26.7641,36.7273958 26.2647066,36.3799607 26.06875,35.856625 L16.5729167,10.54575 L12.4520833,21.5232917 C12.2561268,22.0466274 11.7567334,22.3940625 11.1979167,22.3958333 L0.895833333,22.3958333 L0.895833333,19.7083333 L10.2671458,19.7083333 L15.31875,6.24754167 C15.5157554,5.72368631 16.0168255,5.37679167 16.5765,5.37679167 C17.1361745,5.37679167 17.6372446,5.72368631 17.83425,6.24754167 L27.3229167,31.5584167 L31.44375,20.580875 C31.6397066,20.0575393 32.1391,19.7101042 32.6979167,19.7083333 L42.1041667,19.7083333 L42.1041667,22.3958333 L33.6286875,22.3958333 L28.5770833,35.856625 C28.3811268,36.3799607 27.8817334,36.7273958 27.3229167,36.7291667 Z"/>
      </g>
    </g>
  </g>
</svg>
